<svg width="32" height="32" viewBox="0 0 32 32" fill="none" xmlns="http://www.w3.org/2000/svg">
  <!-- Retro arcade style favicon inspired by 80s gaming aesthetics -->
  <defs>
    <linearGradient id="grad1" x1="0%" y1="0%" x2="100%" y2="100%">
      <stop offset="0%" style="stop-color:#ff006e;stop-opacity:1" />
      <stop offset="50%" style="stop-color:#8338ec;stop-opacity:1" />
      <stop offset="100%" style="stop-color:#3a86ff;stop-opacity:1" />
    </linearGradient>
  </defs>
  
  <!-- Background with dark border -->
  <rect width="32" height="32" rx="6" fill="#0a0e27"/>
  <rect x="1" y="1" width="30" height="30" rx="5" fill="#1a1f3a"/>
  
  <!-- Stylized "MB" letters in retro pixel style -->
  <!-- M -->
  <rect x="5" y="8" width="3" height="16" fill="url(#grad1)"/>
  <rect x="8" y="10" width="2" height="4" fill="url(#grad1)"/>
  <rect x="10" y="8" width="3" height="16" fill="url(#grad1)"/>
  
  <!-- B -->
  <rect x="16" y="8" width="3" height="16" fill="url(#grad1)"/>
  <rect x="19" y="8" width="6" height="3" fill="url(#grad1)"/>
  <rect x="19" y="14" width="6" height="3" fill="url(#grad1)"/>
  <rect x="19" y="21" width="6" height="3" fill="url(#grad1)"/>
  <rect x="25" y="11" width="2" height="3" fill="url(#grad1)"/>
  <rect x="25" y="17" width="2" height="4" fill="url(#grad1)"/>
  
  <!-- Glow effect -->
  <rect x="5" y="8" width="3" height="16" fill="url(#grad1)" opacity="0.3" filter="blur(2px)"/>
  <rect x="10" y="8" width="3" height="16" fill="url(#grad1)" opacity="0.3" filter="blur(2px)"/>
  <rect x="16" y="8" width="11" height="16" fill="url(#grad1)" opacity="0.2" filter="blur(3px)"/>
</svg>
